<?xml version="1.0" standalone="no"?>
<!DOCTYPE svg PUBLIC "-//W3C//DTD SVG 20010904//EN"
 "http://www.w3.org/TR/2001/REC-SVG-20010904/DTD/svg10.dtd">
<svg version="1.0" xmlns="http://www.w3.org/2000/svg"
 width="105.000000pt" height="105.000000pt" viewBox="0 0 105.000000 105.000000"
 preserveAspectRatio="xMidYMid meet">

<g transform="translate(0.000000,105.000000) scale(0.100000,-0.100000)"
fill="#000000" stroke="none">
<path d="M880 925 c-10 -12 -11 -21 -4 -33 15 -22 27 -24 49 -8 16 12 18 18 9
33 -15 24 -38 27 -54 8z"/>
<path d="M802 848 c-30 -30 9 -69 44 -43 15 11 17 17 8 32 -14 23 -36 27 -52
11z"/>
<path d="M277 774 c-12 -12 -8 -41 8 -54 20 -17 47 5 43 34 -3 21 -37 34 -51
20z"/>
<path d="M387 773 c-14 -13 -7 -43 12 -53 28 -14 55 13 41 41 -10 19 -40 26
-53 12z"/>
<path d="M497 773 c-14 -13 -7 -43 12 -53 15 -7 23 -6 35 6 19 19 20 26 4 42
-13 13 -41 16 -51 5z"/>
<path d="M604 758 c-9 -28 20 -52 47 -37 11 5 19 14 19 19 0 42 -53 57 -66 18z"/>
<path d="M722 768 c-16 -16 -15 -23 4 -42 21 -22 56 -3 52 27 -3 25 -37 34
-56 15z"/>
<path d="M610 656 c-27 -33 18 -72 48 -42 13 13 14 20 6 34 -15 23 -38 26 -54
8z"/>
<path d="M720 656 c-27 -33 18 -72 48 -42 13 13 14 20 6 34 -15 23 -38 26 -54
8z"/>
<path d="M530 576 c-27 -33 18 -72 48 -42 13 13 14 20 6 34 -15 23 -38 26 -54
8z"/>
<path d="M720 546 c-27 -33 18 -72 48 -42 13 13 14 20 6 34 -15 23 -38 26 -54
8z"/>
<path d="M451 497 c-24 -29 17 -70 46 -46 8 7 13 22 11 33 -4 25 -40 33 -57
13z"/>
<path d="M725 434 c-18 -18 -16 -33 7 -47 21 -14 48 -2 48 22 0 30 -34 45 -55
25z"/>
<path d="M371 411 c-8 -15 -7 -23 5 -35 21 -22 56 -3 52 27 -4 30 -43 35 -57
8z"/>
<path d="M72 338 c-16 -16 -15 -23 4 -42 21 -22 56 -3 52 27 -3 25 -37 34 -56
15z"/>
<path d="M182 338 c-16 -16 -15 -23 4 -42 21 -22 56 -3 52 27 -3 25 -37 34
-56 15z"/>
<path d="M294 336 c-10 -26 4 -48 28 -44 33 4 33 52 0 56 -13 2 -25 -3 -28
-12z"/>
<path d="M717 316 c-11 -28 4 -47 32 -44 20 2 26 8 26 28 0 20 -6 26 -26 28
-17 2 -29 -3 -32 -12z"/>
<path d="M297 234 c-13 -13 -7 -52 8 -58 27 -10 46 5 43 33 -3 26 -35 41 -51
25z"/>
<path d="M302 121 c-8 -4 -12 -19 -10 -32 2 -18 9 -24 28 -24 19 0 26 6 28 24
5 32 -20 49 -46 32z"/>
</g>
</svg>
